<svg id="Layer_1" data-name="Layer 1" xmlns="http://www.w3.org/2000/svg" xmlns:xlink="http://www.w3.org/1999/xlink" viewBox="0 0 2189.96 566.21"><defs><style>.cls-1{fill:url(#linear-gradient);}.cls-2{fill:url(#linear-gradient-2);}.cls-3{fill:url(#linear-gradient-3);}.cls-4{fill:url(#linear-gradient-4);}.cls-5{fill:url(#linear-gradient-5);}.cls-6{fill:url(#linear-gradient-6);}.cls-7{font-size:96.38px;letter-spacing:0.5em;}.cls-7,.cls-8{fill:#041d3c;font-family:Poppins-SemiBold, Poppins;font-weight:600;}.cls-8{font-size:51.02px;letter-spacing:0.21em;}</style><linearGradient id="linear-gradient" x1="80.76" y1="568.12" x2="477.6" y2="568.12" gradientUnits="userSpaceOnUse"><stop offset="0" stop-color="#0a56ac"/><stop offset="0.35" stop-color="#226ac0"/><stop offset="1" stop-color="#5696ed"/></linearGradient><linearGradient id="linear-gradient-2" x1="146.16" y1="462.16" x2="482.92" y2="462.16" gradientUnits="userSpaceOnUse"><stop offset="0" stop-color="#5696ed"/><stop offset="0.02" stop-color="#5394eb"/><stop offset="0.29" stop-color="#3479d0"/><stop offset="0.54" stop-color="#1d66bc"/><stop offset="0.79" stop-color="#0f5ab0"/><stop offset="1" stop-color="#0a56ac"/></linearGradient><linearGradient id="linear-gradient-3" x1="405.48" y1="732.39" x2="629.2" y2="360.17" gradientUnits="userSpaceOnUse"><stop offset="0" stop-color="#0a56ac"/><stop offset="0.21" stop-color="#0f5ab0"/><stop offset="0.46" stop-color="#1d66bc"/><stop offset="0.71" stop-color="#3479d0"/><stop offset="0.98" stop-color="#5394eb"/><stop offset="1" stop-color="#5696ed"/></linearGradient><linearGradient id="linear-gradient-4" x1="1013.13" y1="735.93" x2="644.13" y2="239.64" gradientUnits="userSpaceOnUse"><stop offset="0" stop-color="#1853a1"/><stop offset="0.03" stop-color="#17509c"/><stop offset="0.21" stop-color="#103e79"/><stop offset="0.4" stop-color="#0b2f5e"/><stop offset="0.6" stop-color="#07254b"/><stop offset="0.79" stop-color="#051f40"/><stop offset="1" stop-color="#041d3c"/></linearGradient><linearGradient id="linear-gradient-5" x1="496.25" y1="247.29" x2="833.01" y2="247.29" gradientTransform="translate(1491.49 925.21) rotate(180)" gradientUnits="userSpaceOnUse"><stop offset="0" stop-color="#041d3c"/><stop offset="0.16" stop-color="#052144"/><stop offset="0.41" stop-color="#0a2c58"/><stop offset="0.71" stop-color="#103e7a"/><stop offset="1" stop-color="#1853a1"/></linearGradient><linearGradient id="linear-gradient-6" x1="800.06" y1="354.34" x2="478.63" y2="773.48" gradientUnits="userSpaceOnUse"><stop offset="0" stop-color="#1853a1"/><stop offset="0.02" stop-color="#164e98"/><stop offset="0.11" stop-color="#113f7c"/><stop offset="0.2" stop-color="#0c3364"/><stop offset="0.32" stop-color="#082952"/><stop offset="0.45" stop-color="#062246"/><stop offset="0.62" stop-color="#041e3e"/><stop offset="1" stop-color="#041d3c"/></linearGradient></defs><title>Favicon</title><path class="cls-1" d="M477.6,628.14a163,163,0,0,1-101,150.75A222,222,0,0,1,309.67,791q-3,.07-5.94.08c-123.14,0-223-99.83-223-223s99.83-223,223-223c2,0,4.06,0,6.07.08A168.71,168.71,0,1,0,470.26,579.66,162.81,162.81,0,0,1,477.6,628.14Z" transform="translate(1130.71 -345.15)"/><path class="cls-2" d="M482.92,435.42l-10,19.22-34.94,66.94a163,163,0,0,0-278.71,57.5A168.8,168.8,0,0,1,309.8,345.23a222.46,222.46,0,0,1,173.12,90.19Z" transform="translate(1130.71 -345.15)"/><path class="cls-3" d="M699.14,352.83A222.69,222.69,0,0,0,510.2,457.36l-16.69,32.12-42,80.82h0L398.06,673.16A224.19,224.19,0,0,1,287.11,790.41q8.68.68,17.56.68A222.69,222.69,0,0,0,493.61,686.56l16.69-32.12,42-80.82h0l53.45-102.86a224.19,224.19,0,0,1,111-117.25Q708,352.84,699.14,352.83Z" transform="translate(1130.71 -345.15)"/><path class="cls-4" d="M662.4,509.37a163,163,0,0,1,101-150.75,222,222,0,0,1,67-12.12q3-.08,5.94-.08c123.14,0,223,99.83,223,223s-99.83,223-223,223c-2,0-4.06,0-6.07-.08A168.71,168.71,0,1,0,669.74,557.85,162.81,162.81,0,0,1,662.4,509.37Z" transform="translate(1130.71 -345.15)"/><path class="cls-5" d="M658.47,704.66l10-19.22,34.94-66.94A163,163,0,0,0,982.16,561,168.8,168.8,0,0,1,831.59,794.85a222.46,222.46,0,0,1-173.12-90.19Z" transform="translate(1130.71 -345.15)"/><path class="cls-6" d="M440.86,784.68A222.69,222.69,0,0,0,629.8,680.15L646.49,648l42-80.82h0l53.46-102.86A224.19,224.19,0,0,1,852.89,347.1q-8.68-.68-17.56-.68A222.69,222.69,0,0,0,646.39,451L629.7,483.07l-42,80.82h0L534.25,666.75A224.19,224.19,0,0,1,423.3,784Q432,784.68,440.86,784.68Z" transform="translate(1130.71 -345.15)"/><text class="cls-7" transform="translate(12.73 439.52)">INFINITECH</text><text class="cls-8" transform="translate(14.77 506.25)">ADVERTISING CORPORATION</text></svg>